<?xml version="1.0" encoding="UTF-8"?>
<svg xmlns="http://www.w3.org/2000/svg" xmlns:xlink="http://www.w3.org/1999/xlink" width="200px" height="200px" viewBox="0 0 200 227" version="1.1">
<g id="surface1">
<path style=" stroke:none;fill-rule:nonzero;fill:rgb(38.039216%,85.490197%,98.431373%);fill-opacity:1;" d="M 200 113.519531 C 200 100.324219 183.40625 87.816406 157.96875 80.0625 C 163.839844 54.234375 161.230469 33.6875 149.734375 27.109375 C 147.085938 25.566406 143.988281 24.835938 140.601562 24.835938 L 140.601562 33.890625 C 142.480469 33.890625 143.988281 34.257812 145.25 34.945312 C 150.796875 38.113281 153.199219 50.175781 151.324219 65.6875 C 150.875 69.503906 150.144531 73.523438 149.246094 77.625 C 141.253906 75.675781 132.53125 74.171875 123.359375 73.199219 C 117.855469 65.6875 112.148438 58.863281 106.398438 52.894531 C 119.691406 40.589844 132.164062 33.851562 140.644531 33.851562 L 140.644531 24.796875 C 129.433594 24.796875 114.757812 32.753906 99.917969 46.558594 C 85.078125 32.835938 70.402344 24.957031 59.191406 24.957031 L 59.191406 34.011719 C 67.632812 34.011719 80.148438 40.714844 93.4375 52.933594 C 87.730469 58.90625 82.023438 65.6875 76.601562 73.199219 C 67.386719 74.171875 58.664062 75.675781 50.671875 77.664062 C 49.734375 73.605469 49.042969 69.664062 48.554688 65.890625 C 46.636719 50.378906 49 38.316406 54.503906 35.109375 C 55.726562 34.378906 57.316406 34.054688 59.191406 34.054688 L 59.191406 25 C 55.769531 25 52.671875 25.730469 49.980469 27.273438 C 38.523438 33.851562 35.957031 54.355469 41.867188 80.101562 C 16.511719 87.898438 0 100.363281 0 113.519531 C 0 126.71875 16.59375 139.222656 42.03125 146.980469 C 36.160156 172.804688 38.769531 193.351562 50.265625 199.929688 C 52.914062 201.472656 56.011719 202.203125 59.4375 202.203125 C 70.648438 202.203125 85.324219 194.246094 100.164062 180.441406 C 115.003906 194.164062 129.679688 202.042969 140.890625 202.042969 C 144.3125 202.042969 147.410156 201.3125 150.101562 199.769531 C 161.558594 193.191406 164.125 172.683594 158.214844 146.9375 C 183.488281 139.183594 200 126.675781 200 113.519531 M 146.921875 86.4375 C 145.414062 91.675781 143.539062 97.074219 141.417969 102.476562 C 139.746094 99.226562 137.996094 95.976562 136.078125 92.730469 C 134.203125 89.480469 132.207031 86.3125 130.207031 83.226562 C 135.996094 84.082031 141.582031 85.136719 146.921875 86.4375 M 128.25 129.683594 C 125.070312 135.164062 121.808594 140.359375 118.425781 145.191406 C 112.351562 145.722656 106.195312 146.003906 100 146.003906 C 93.84375 146.003906 87.6875 145.722656 81.65625 145.234375 C 78.273438 140.402344 74.96875 135.246094 71.789062 129.804688 C 68.691406 124.484375 65.878906 119.082031 63.308594 113.640625 C 65.835938 108.199219 68.691406 102.757812 71.75 97.441406 C 74.929688 91.957031 78.191406 86.761719 81.574219 81.929688 C 87.648438 81.402344 93.804688 81.117188 100 81.117188 C 106.15625 81.117188 112.3125 81.402344 118.34375 81.886719 C 121.726562 86.71875 125.03125 91.878906 128.210938 97.316406 C 131.308594 102.636719 134.121094 108.039062 136.691406 113.480469 C 134.121094 118.921875 131.308594 124.363281 128.25 129.683594 M 141.417969 124.402344 C 143.621094 129.84375 145.496094 135.285156 147.042969 140.5625 C 141.703125 141.863281 136.078125 142.960938 130.25 143.8125 C 132.246094 140.6875 134.242188 137.476562 136.117188 134.1875 C 137.996094 130.941406 139.746094 127.652344 141.417969 124.402344 M 100.082031 167.730469 C 96.289062 163.832031 92.5 159.488281 88.75 154.734375 C 92.417969 154.898438 96.167969 155.019531 99.960938 155.019531 C 103.792969 155.019531 107.582031 154.9375 111.292969 154.734375 C 107.625 159.488281 103.832031 163.832031 100.082031 167.730469 M 69.75 143.8125 C 63.960938 142.960938 58.378906 141.902344 53.035156 140.605469 C 54.546875 135.367188 56.421875 129.964844 58.539062 124.566406 C 60.210938 127.8125 61.964844 131.0625 63.882812 134.3125 C 65.796875 137.558594 67.753906 140.726562 69.75 143.8125 M 99.878906 59.3125 C 103.667969 63.207031 107.460938 67.554688 111.210938 72.304688 C 107.542969 72.140625 103.792969 72.019531 100 72.019531 C 96.167969 72.019531 92.375 72.101562 88.667969 72.304688 C 92.335938 67.554688 96.128906 63.207031 99.878906 59.3125 M 69.710938 83.226562 C 67.714844 86.355469 65.714844 89.5625 63.839844 92.851562 C 61.964844 96.101562 60.210938 99.347656 58.539062 102.597656 C 56.339844 97.15625 54.464844 91.714844 52.914062 86.4375 C 58.253906 85.175781 63.882812 84.082031 69.710938 83.226562 M 32.816406 134.066406 C 18.386719 127.9375 9.050781 119.894531 9.050781 113.519531 C 9.050781 107.144531 18.386719 99.0625 32.816406 92.972656 C 36.324219 91.472656 40.15625 90.132812 44.109375 88.871094 C 46.433594 96.832031 49.492188 105.113281 53.28125 113.601562 C 49.53125 122.046875 46.515625 130.289062 44.230469 138.210938 C 40.195312 136.949219 36.363281 135.570312 32.816406 134.066406 M 54.75 192.09375 C 49.203125 188.925781 46.800781 176.867188 48.675781 161.355469 C 49.125 157.539062 49.855469 153.519531 50.753906 149.417969 C 58.746094 151.367188 67.46875 152.867188 76.640625 153.84375 C 82.144531 161.355469 87.851562 168.175781 93.601562 174.144531 C 80.308594 186.449219 67.835938 193.191406 59.355469 193.191406 C 57.519531 193.148438 55.972656 192.785156 54.75 192.09375 M 151.445312 161.152344 C 153.363281 176.664062 151 188.722656 145.496094 191.929688 C 144.273438 192.664062 142.683594 192.988281 140.808594 192.988281 C 132.367188 192.988281 119.851562 186.285156 106.5625 174.066406 C 112.269531 168.09375 117.976562 161.3125 123.398438 153.800781 C 132.613281 152.828125 141.335938 151.324219 149.328125 149.335938 C 150.265625 153.4375 151 157.375 151.445312 161.152344 M 167.140625 134.066406 C 163.636719 135.570312 159.804688 136.910156 155.851562 138.167969 C 153.527344 130.210938 150.46875 121.925781 146.675781 113.4375 C 150.429688 104.992188 153.445312 96.75 155.726562 88.832031 C 159.761719 90.089844 163.59375 91.472656 167.183594 92.972656 C 181.613281 99.105469 190.949219 107.144531 190.949219 113.519531 C 190.910156 119.894531 181.574219 127.976562 167.140625 134.066406 "/>
<path style=" stroke:none;fill-rule:nonzero;fill:rgb(38.039216%,85.490197%,98.431373%);fill-opacity:1;" d="M 118.589844 113.519531 C 118.589844 103.269531 110.25 94.964844 99.960938 94.964844 C 89.671875 94.964844 81.328125 103.269531 81.328125 113.519531 C 81.328125 123.769531 89.671875 132.078125 99.960938 132.078125 C 110.25 132.078125 118.589844 123.769531 118.589844 113.519531 Z M 118.589844 113.519531 "/>
</g>
</svg>
