<?xml version="1.0" encoding="UTF-8"?>
<svg xmlns="http://www.w3.org/2000/svg" xmlns:xlink="http://www.w3.org/1999/xlink" width="213px" height="300px" viewBox="0 0 213 300" version="1.1">
<g id="surface1">
<path style=" stroke:none;fill-rule:nonzero;fill:rgb(14.901961%,30.19608%,89.411765%);fill-opacity:1;" d="M 212.953125 58.972656 L 193.554688 275.9375 L 106.347656 300.074219 L 19.378906 275.972656 L 0 58.972656 Z M 212.953125 58.972656 "/>
<path style=" stroke:none;fill-rule:nonzero;fill:rgb(16.078432%,39.607844%,94.509804%);fill-opacity:1;" d="M 176.945312 262.121094 L 193.523438 76.714844 L 106.476562 76.714844 L 106.476562 281.625 Z M 176.945312 262.121094 "/>
<path style=" stroke:none;fill-rule:nonzero;fill:rgb(92.156863%,92.156863%,92.156863%);fill-opacity:1;" d="M 44.429688 157.195312 L 46.816406 183.8125 L 106.476562 183.8125 L 106.476562 157.195312 Z M 106.476562 103.328125 L 39.628906 103.328125 L 42.050781 129.945312 L 106.476562 129.945312 Z M 106.476562 254.007812 L 106.476562 226.316406 L 106.359375 226.347656 L 76.667969 218.34375 L 74.769531 197.117188 L 48.007812 197.117188 L 51.742188 238.90625 L 106.355469 254.039062 Z M 106.476562 254.007812 "/>
<path style=" stroke:none;fill-rule:nonzero;fill:rgb(0%,0%,0%);fill-opacity:1;" d="M 50.117188 0 L 82.40625 0 L 82.40625 13.480469 L 63.621094 13.480469 L 63.621094 26.960938 L 82.40625 26.960938 L 82.40625 40.441406 L 50.117188 40.441406 Z M 88.863281 0 L 121.152344 0 L 121.152344 11.722656 L 102.367188 11.722656 L 102.367188 14.066406 L 121.152344 14.066406 L 121.152344 41.027344 L 88.863281 41.027344 L 88.863281 28.71875 L 107.652344 28.71875 L 107.652344 26.375 L 88.863281 26.375 Z M 127.613281 0 L 159.902344 0 L 159.902344 11.722656 L 141.113281 11.722656 L 141.113281 14.066406 L 159.902344 14.066406 L 159.902344 41.027344 L 127.613281 41.027344 L 127.613281 28.71875 L 146.398438 28.71875 L 146.398438 26.375 L 127.613281 26.375 Z M 127.613281 0 "/>
<path style=" stroke:none;fill-rule:nonzero;fill:rgb(100%,100%,100%);fill-opacity:1;" d="M 139.214844 183.8125 L 136.117188 218.328125 L 106.382812 226.339844 L 106.382812 254.027344 L 161.039062 238.90625 L 161.4375 234.410156 L 167.703125 164.34375 L 168.355469 157.195312 L 173.167969 103.328125 L 106.382812 103.328125 L 106.382812 129.945312 L 143.949219 129.945312 L 141.523438 157.195312 L 106.382812 157.195312 L 106.382812 183.8125 Z M 139.214844 183.8125 "/>
</g>
</svg>
