<?xml version="1.0" encoding="UTF-8"?>
<svg xmlns="http://www.w3.org/2000/svg" xmlns:xlink="http://www.w3.org/1999/xlink" width="200px" height="200px" viewBox="0 0 200 299" version="1.1">
<g id="surface1">
<path style=" stroke:none;fill-rule:nonzero;fill:rgb(3.921569%,81.176472%,51.372552%);fill-opacity:1;" d="M 50.011719 299 C 77.605469 299 100 276.675781 100 249.167969 L 100 199.332031 L 50.011719 199.332031 C 22.414062 199.332031 0.0195312 221.660156 0.0195312 249.167969 C 0.0195312 276.675781 22.414062 299 50.011719 299 "/>
<path style=" stroke:none;fill-rule:nonzero;fill:rgb(63.529414%,34.901962%,100%);fill-opacity:1;" d="M 0.0195312 149.5 C 0.0195312 121.992188 22.414062 99.667969 50.011719 99.667969 L 100 99.667969 L 100 199.332031 L 50.011719 199.332031 C 22.414062 199.332031 0.0195312 177.007812 0.0195312 149.5 "/>
<path style=" stroke:none;fill-rule:nonzero;fill:rgb(94.901961%,30.588236%,11.764706%);fill-opacity:1;" d="M 0.0195312 49.832031 C 0.0195312 22.324219 22.414062 0 50.011719 0 L 100 0 L 100 99.667969 L 50.011719 99.667969 C 22.414062 99.667969 0.0195312 77.339844 0.0195312 49.832031 "/>
<path style=" stroke:none;fill-rule:nonzero;fill:rgb(100%,44.705883%,38.431373%);fill-opacity:1;" d="M 100 0 L 149.988281 0 C 177.585938 0 199.980469 22.324219 199.980469 49.832031 C 199.980469 77.339844 177.585938 99.667969 149.988281 99.667969 L 100 99.667969 Z M 100 0 "/>
<path style=" stroke:none;fill-rule:nonzero;fill:rgb(10.196079%,73.725492%,99.607843%);fill-opacity:1;" d="M 199.980469 149.5 C 199.980469 177.007812 177.585938 199.332031 149.988281 199.332031 C 122.394531 199.332031 100 177.007812 100 149.5 C 100 121.992188 122.394531 99.667969 149.988281 99.667969 C 177.585938 99.667969 199.980469 121.992188 199.980469 149.5 "/>
</g>
</svg>
