<?xml version="1.0" encoding="UTF-8"?>
<svg xmlns="http://www.w3.org/2000/svg" xmlns:xlink="http://www.w3.org/1999/xlink" width="200px" height="200px" viewBox="0 0 200 199" version="1.1">
<g id="surface1">
<path style=" stroke:none;fill-rule:nonzero;fill:rgb(94.117647%,31.764707%,20%);fill-opacity:1;" d="M 191.15625 91.105469 L 108.433594 8.804688 C 103.667969 4.066406 95.945312 4.066406 91.179688 8.804688 L 74.003906 25.898438 L 95.792969 47.574219 C 101.015625 45.804688 106.796875 47.148438 110.695312 51.03125 C 114.625 54.941406 115.960938 60.738281 114.140625 65.957031 L 135.140625 86.851562 C 140.390625 85.042969 146.214844 86.371094 150.140625 90.28125 C 155.691406 95.945312 155.628906 104.992188 150.007812 110.582031 C 144.386719 116.175781 135.292969 116.230469 129.605469 110.710938 C 125.460938 106.585938 124.214844 100.390625 126.449219 95 L 106.859375 75.511719 L 106.859375 126.792969 C 112.027344 129.324219 115.203125 134.660156 114.953125 140.386719 C 114.703125 146.113281 111.070312 151.148438 105.699219 153.222656 C 100.332031 155.296875 94.234375 154.015625 90.167969 149.957031 C 86.730469 146.539062 85.238281 141.636719 86.195312 136.898438 C 87.152344 132.15625 90.429688 128.207031 94.921875 126.375 L 94.921875 74.613281 C 91.34375 73.152344 88.496094 70.328125 87.019531 66.773438 C 85.539062 63.214844 85.546875 59.21875 87.042969 55.667969 L 65.5625 34.292969 L 8.839844 90.722656 C 4.074219 95.464844 4.074219 103.152344 8.839844 107.898438 L 91.566406 190.199219 C 96.332031 194.941406 104.054688 194.941406 108.820312 190.199219 L 191.15625 108.277344 C 195.917969 103.535156 195.917969 95.847656 191.15625 91.105469 "/>
</g>
</svg>
