<?xml version="1.0" encoding="UTF-8"?>
<svg xmlns="http://www.w3.org/2000/svg" xmlns:xlink="http://www.w3.org/1999/xlink" width="200px" height="200px" viewBox="0 0 200 200" version="1.1">
<g id="surface1">
<rect x="0" y="0" width="200" height="200" style="fill:rgb(96.862745%,87.450981%,11.764706%);fill-opacity:1;stroke:none;"/>
<path style=" stroke:none;fill-rule:nonzero;fill:rgb(0%,0%,0%);fill-opacity:1;" d="M 52.585938 167.132812 L 67.890625 157.871094 C 70.84375 163.105469 73.53125 167.535156 79.972656 167.535156 C 86.148438 167.535156 90.042969 165.121094 90.042969 155.722656 L 90.042969 91.820312 L 108.839844 91.820312 L 108.839844 155.988281 C 108.839844 175.457031 97.429688 184.316406 80.78125 184.316406 C 65.746094 184.316406 57.015625 176.53125 52.585938 167.132812 M 119.046875 165.121094 L 134.351562 156.261719 C 138.378906 162.839844 143.617188 167.671875 152.878906 167.671875 C 160.667969 167.671875 165.632812 163.777344 165.632812 158.40625 C 165.632812 151.964844 160.53125 149.679688 151.9375 145.921875 L 147.242188 143.90625 C 133.679688 138.136719 124.6875 130.886719 124.6875 115.582031 C 124.6875 101.484375 135.425781 90.746094 152.207031 90.746094 C 164.15625 90.746094 172.75 94.90625 178.921875 105.78125 L 164.289062 115.179688 C 161.066406 109.40625 157.578125 107.125 152.207031 107.125 C 146.703125 107.125 143.210938 110.617188 143.210938 115.179688 C 143.210938 120.816406 146.703125 123.101562 154.757812 126.59375 L 159.457031 128.605469 C 175.433594 135.453125 184.425781 142.433594 184.425781 158.140625 C 184.425781 175.058594 171.136719 184.320312 153.28125 184.320312 C 135.828125 184.320312 124.550781 175.996094 119.046875 165.121094 "/>
</g>
</svg>
