<?xml version="1.0" encoding="UTF-8"?>
<svg xmlns="http://www.w3.org/2000/svg" xmlns:xlink="http://www.w3.org/1999/xlink" width="200px" height="200px" viewBox="0 0 200 200" version="1.1">
<g id="surface1">
<path style=" stroke:none;fill-rule:nonzero;fill:rgb(60.000002%,25.882354%,35.686275%);fill-opacity:1;" d="M 178.835938 98.203125 C 178.835938 87.953125 170.523438 79.640625 160.269531 79.640625 C 159.609375 79.640625 158.960938 79.675781 158.320312 79.742188 L 183.820312 4.535156 L 75.453125 4.535156 L 100.917969 79.675781 C 100.542969 79.652344 100.164062 79.640625 99.789062 79.640625 C 89.535156 79.640625 81.222656 87.953125 81.222656 98.207031 C 81.222656 106.492188 86.65625 113.511719 94.152344 115.898438 C 90.191406 122.753906 85.210938 128.933594 79.554688 134.269531 C 71.863281 141.527344 63.058594 147.027344 53.539062 150.417969 C 42.203125 144.59375 36.851562 131.644531 41.679688 120.289062 C 42.226562 119.007812 42.78125 117.707031 43.316406 116.414062 C 51.527344 114.496094 57.648438 107.136719 57.648438 98.339844 C 57.648438 88.085938 49.335938 79.773438 39.082031 79.773438 C 28.828125 79.773438 20.515625 88.085938 20.515625 98.339844 C 20.515625 104.625 23.644531 110.179688 28.425781 113.539062 C 23.832031 124 17.074219 134.949219 14.972656 147.640625 C 12.449219 162.847656 14.960938 178.992188 28.117188 188.109375 C 58.75 209.34375 92.003906 174.949219 127.066406 166.300781 C 139.773438 163.167969 153.722656 163.671875 164.917969 157.191406 C 173.324219 152.320312 178.867188 144.25 180.4375 135.191406 C 181.992188 126.242188 179.726562 117.332031 174.519531 110.105469 C 177.3125 106.769531 178.84375 102.554688 178.835938 98.203125 "/>
<path style=" stroke:none;fill-rule:nonzero;fill:rgb(100%,100%,100%);fill-opacity:1;" d="M 175.972656 134.414062 C 174.605469 142.28125 169.75 149.152344 162.644531 153.265625 C 156.023438 157.101562 148.085938 158.246094 139.683594 159.457031 C 135.183594 160.105469 130.527344 160.777344 125.980469 161.898438 C 113.957031 164.863281 102.3125 170.648438 91.050781 176.242188 C 68.515625 187.4375 49.050781 197.101562 30.699219 184.382812 C 17.257812 175.066406 17.878906 157.828125 19.445312 148.382812 C 20.894531 139.632812 24.820312 131.570312 28.613281 123.777344 C 29.261719 122.453125 29.902344 121.125 30.539062 119.796875 C 32.449219 120.558594 34.457031 121.0625 36.503906 121.292969 C 32.640625 134.039062 38.714844 147.902344 51.464844 154.453125 L 53.210938 155.347656 L 55.058594 154.691406 C 65.140625 151.101562 74.425781 145.339844 82.664062 137.566406 C 87.992188 132.542969 92.570312 126.984375 96.332031 121.046875 C 97.476562 121.21875 98.632812 121.304688 99.789062 121.304688 C 111.492188 121.304688 121.183594 112.558594 122.683594 101.257812 C 127.472656 101.082031 132.558594 101.082031 137.378906 101.257812 C 138.875 112.558594 148.566406 121.304688 160.269531 121.304688 C 165.164062 121.304688 169.703125 119.773438 173.441406 117.167969 C 176.035156 122.480469 177.003906 128.460938 175.972656 134.414062 M 39.082031 84.308594 C 46.820312 84.308594 53.113281 90.601562 53.113281 98.339844 C 53.113281 101.117188 52.296875 103.710938 50.898438 105.890625 C 48.566406 109.53125 44.601562 112.023438 40.046875 112.332031 C 39.726562 112.355469 39.40625 112.371094 39.082031 112.371094 C 37.355469 112.371094 35.707031 112.054688 34.179688 111.484375 C 31.101562 110.328125 28.527344 108.132812 26.894531 105.28125 C 25.683594 103.167969 25.046875 100.773438 25.050781 98.339844 C 25.050781 90.601562 31.34375 84.308594 39.082031 84.308594 M 85.757812 98.207031 C 85.757812 91.175781 90.957031 85.339844 97.707031 84.328125 C 98.386719 84.226562 99.082031 84.175781 99.789062 84.175781 C 104.289062 84.175781 108.292969 86.304688 110.863281 89.605469 C 111.503906 90.429688 112.054688 91.324219 112.5 92.269531 C 113.371094 94.125 113.824219 96.152344 113.820312 98.207031 C 113.820312 99.328125 113.683594 100.417969 113.4375 101.464844 C 112.070312 107.1875 107.1875 111.5625 101.207031 112.167969 C 100.742188 112.214844 100.269531 112.238281 99.789062 112.238281 C 97.089844 112.238281 94.449219 111.457031 92.1875 109.988281 C 88.324219 107.484375 85.757812 103.140625 85.757812 98.207031 M 144.320312 81.519531 C 141.265625 84.433594 139.070312 88.128906 137.964844 92.203125 C 132.679688 92.007812 127.382812 92.007812 122.09375 92.203125 C 120.90625 87.800781 118.449219 83.914062 115.136719 80.960938 L 129.65625 51.605469 Z M 81.777344 9.070312 L 177.492188 9.070312 L 154.886719 75.746094 C 153.914062 75.976562 152.957031 76.273438 152.023438 76.632812 L 129.691406 31.074219 L 107.296875 76.359375 C 106.320312 76.023438 105.320312 75.753906 104.308594 75.554688 Z M 174.300781 98.207031 C 174.300781 99.613281 174.089844 100.972656 173.703125 102.253906 C 172.789062 105.273438 170.882812 107.898438 168.296875 109.707031 C 165.945312 111.355469 163.140625 112.238281 160.269531 112.238281 C 153.792969 112.238281 148.328125 107.824219 146.71875 101.84375 C 146.398438 100.65625 146.238281 99.433594 146.238281 98.207031 C 146.238281 96.289062 146.625 94.460938 147.324219 92.792969 C 147.6875 91.941406 148.132812 91.125 148.652344 90.359375 C 151.179688 86.632812 155.4375 84.175781 160.269531 84.175781 C 160.710938 84.175781 161.152344 84.195312 161.582031 84.238281 C 168.707031 84.902344 174.300781 90.910156 174.300781 98.207031 M 183.371094 98.207031 C 183.371094 86.929688 175.246094 77.519531 164.542969 75.507812 L 190.144531 0 L 69.128906 0 L 94.769531 75.660156 C 84.441406 77.960938 76.691406 87.191406 76.691406 98.207031 C 76.691406 106.476562 81.0625 113.738281 87.609375 117.820312 C 84.460938 122.515625 80.722656 126.933594 76.441406 130.972656 C 69.652344 137.375 62.089844 142.234375 53.933594 145.429688 C 45.71875 140.269531 42.25 130.539062 45.855469 122.0625 L 46.136719 121.398438 L 46.667969 120.152344 C 55.6875 117.007812 62.179688 108.417969 62.179688 98.339844 C 62.179688 85.601562 51.820312 75.238281 39.082031 75.238281 C 26.34375 75.238281 15.980469 85.601562 15.980469 98.339844 C 15.980469 104.769531 18.625 110.589844 22.878906 114.78125 C 22.082031 116.464844 21.277344 118.136719 20.460938 119.808594 C 16.574219 127.792969 12.164062 136.847656 10.5 146.898438 C 7.1875 166.863281 12.527344 182.824219 25.535156 191.835938 C 33.425781 197.308594 41.441406 199.457031 49.507812 199.457031 C 64.695312 199.457031 80.058594 191.828125 95.085938 184.363281 C 105.910156 178.988281 117.101562 173.429688 128.152344 170.703125 C 132.265625 169.691406 136.5 169.078125 140.980469 168.433594 C 149.863281 167.152344 159.050781 165.828125 167.191406 161.113281 C 176.625 155.648438 183.082031 146.484375 184.90625 135.96875 C 186.476562 126.9375 184.589844 117.898438 179.988281 110.226562 C 182.203125 106.609375 183.375 102.449219 183.371094 98.207031 "/>
</g>
</svg>
