<?xml version="1.0" encoding="UTF-8"?>
<svg xmlns="http://www.w3.org/2000/svg" xmlns:xlink="http://www.w3.org/1999/xlink" width="200px" height="200px" viewBox="0 0 200 200" version="1.1">
<defs>
<linearGradient id="linear0" gradientUnits="userSpaceOnUse" x1="63.816002" y1="56.682999" x2="118.492996" y2="1.823" gradientTransform="matrix(1.818182,0,0,-1.818182,-97.285456,120.925453)">
<stop offset="0" style="stop-color:rgb(21.960784%,49.411765%,72.156863%);stop-opacity:1;"/>
<stop offset="1" style="stop-color:rgb(21.176471%,41.176471%,58.039216%);stop-opacity:1;"/>
</linearGradient>
<linearGradient id="linear1" gradientUnits="userSpaceOnUse" x1="97.043999" y1="21.632" x2="155.667007" y2="-34.530998" gradientTransform="matrix(1.818182,0,0,-1.818182,-97.285456,120.925453)">
<stop offset="0" style="stop-color:rgb(100%,87.843137%,32.156863%);stop-opacity:1;"/>
<stop offset="1" style="stop-color:rgb(100%,76.470588%,19.215686%);stop-opacity:1;"/>
</linearGradient>
</defs>
<g id="surface1">
<path style=" stroke:none;fill-rule:nonzero;fill:url(#linear0);" d="M 99.660156 0 C 52.441406 0 51.933594 18.328125 51.933594 22.101562 L 51.933594 45 L 100.570312 45 L 100.570312 51.875 L 32.613281 51.875 C 18.160156 51.875 0 60.660156 0 99.601562 C 0 135.371094 14.167969 149.203125 28.464844 149.203125 L 45.453125 149.203125 L 45.453125 125.339844 C 45.453125 115.355469 50.402344 96.875 73.464844 96.875 L 121.703125 96.875 C 128.796875 96.875 148.804688 93.789062 148.804688 70.683594 L 148.804688 26.648438 C 148.808594 20.914062 147.828125 0 99.660156 0 M 72.84375 15.398438 C 75.164062 15.394531 77.390625 16.316406 79.03125 17.957031 C 80.675781 19.601562 81.59375 21.828125 81.59375 24.148438 C 81.59375 28.988281 77.683594 32.898438 72.84375 32.898438 C 68 32.898438 64.089844 28.988281 64.089844 24.148438 C 64.089844 21.828125 65.007812 19.601562 66.652344 17.957031 C 68.292969 16.316406 70.519531 15.394531 72.84375 15.398438 "/>
<path style=" stroke:none;fill-rule:nonzero;fill:url(#linear1);" d="M 100.339844 200 C 147.539062 200 148.125 181.324219 148.125 177.898438 L 148.125 155 L 99.429688 155 L 99.429688 148.125 L 167.386719 148.125 C 181.949219 148.125 200 139.117188 200 100.398438 C 200 57.996094 180.839844 50.796875 171.535156 50.796875 L 154.546875 50.796875 L 154.546875 74.660156 C 154.546875 84.644531 149.761719 103.125 126.535156 103.125 L 78.292969 103.125 C 71.21875 103.125 51.191406 106.574219 51.191406 129.316406 L 51.191406 173.351562 C 51.191406 182.863281 57.003906 200 100.339844 200 M 127.160156 184.601562 C 122.320312 184.601562 118.410156 180.691406 118.410156 175.851562 C 118.410156 171.011719 122.316406 167.101562 127.160156 167.101562 C 132 167.101562 135.910156 171.011719 135.910156 175.851562 C 135.910156 180.691406 132 184.601562 127.160156 184.601562 "/>
</g>
</svg>
