<?xml version="1.0" encoding="UTF-8"?>
<svg xmlns="http://www.w3.org/2000/svg" xmlns:xlink="http://www.w3.org/1999/xlink" width="200px" height="200px" viewBox="0 0 200 200" version="1.1">
<g id="surface1">
<path style=" stroke:none;fill-rule:nonzero;fill:rgb(46.27451%,29.019609%,73.725492%);fill-opacity:1;" d="M 138.578125 137.292969 C 145.960938 136.527344 151.558594 130.164062 151.304688 122.527344 C 151.050781 114.894531 144.6875 108.785156 137.050781 108.785156 L 136.542969 108.785156 C 128.652344 109.039062 122.542969 115.65625 122.800781 123.546875 C 123.054688 127.363281 124.582031 130.671875 126.871094 132.964844 C 118.21875 150.015625 104.984375 162.488281 85.132812 172.921875 C 71.644531 180.050781 57.644531 182.59375 43.648438 180.8125 C 32.195312 179.285156 23.285156 174.195312 17.6875 165.796875 C 9.542969 153.324219 8.78125 139.835938 15.652344 126.347656 C 20.488281 116.675781 28.121094 109.546875 32.957031 105.984375 C 31.941406 102.675781 30.414062 97.078125 29.648438 93.003906 C -7.253906 119.730469 -3.4375 155.871094 7.761719 172.921875 C 16.160156 185.648438 33.210938 193.539062 52.046875 193.539062 C 57.136719 193.539062 62.226562 193.03125 67.316406 191.757812 C 99.894531 185.394531 124.582031 166.050781 138.578125 137.292969 M 183.371094 105.730469 C 164.03125 83.078125 135.523438 70.609375 102.949219 70.609375 L 98.875 70.609375 C 96.585938 66.027344 91.75 62.972656 86.40625 62.972656 L 85.894531 62.972656 C 78.007812 63.226562 71.898438 69.84375 72.152344 77.734375 C 72.40625 85.371094 78.769531 91.476562 86.40625 91.476562 L 86.914062 91.476562 C 92.511719 91.222656 97.347656 87.660156 99.382812 82.824219 L 103.964844 82.824219 C 123.308594 82.824219 141.632812 88.421875 158.175781 99.367188 C 170.902344 107.765625 180.0625 118.710938 185.152344 131.945312 C 189.480469 142.636719 189.226562 153.070312 184.644531 161.980469 C 177.519531 175.46875 165.558594 182.851562 149.777344 182.851562 C 139.597656 182.851562 129.925781 179.796875 124.835938 177.503906 C 122.035156 180.050781 116.945312 184.121094 113.382812 186.667969 C 124.328125 191.757812 135.523438 194.558594 146.214844 194.558594 C 170.648438 194.558594 188.71875 181.066406 195.589844 167.578125 C 202.96875 152.816406 202.460938 127.363281 183.371094 105.730469 M 54.082031 141.617188 C 54.335938 149.253906 60.699219 155.359375 68.335938 155.359375 L 68.84375 155.359375 C 76.734375 155.105469 82.839844 148.488281 82.585938 140.597656 C 82.332031 132.964844 75.96875 126.855469 68.335938 126.855469 L 67.824219 126.855469 C 67.316406 126.855469 66.550781 126.855469 66.042969 127.109375 C 55.609375 109.800781 51.28125 90.96875 52.808594 70.605469 C 53.828125 55.335938 58.917969 42.101562 67.824219 31.15625 C 75.207031 21.738281 89.457031 17.15625 99.128906 16.902344 C 126.109375 16.394531 137.558594 49.992188 138.324219 63.480469 C 141.632812 64.242188 147.230469 66.027344 151.050781 67.296875 C 147.996094 26.066406 122.542969 4.6875 98.113281 4.6875 C 75.207031 4.6875 54.082031 21.230469 45.683594 45.664062 C 33.976562 78.242188 41.609375 109.546875 55.863281 134.238281 C 54.589844 136.019531 53.828125 138.816406 54.082031 141.617188 Z M 54.082031 141.617188 "/>
</g>
</svg>
