<?xml version="1.0" encoding="UTF-8"?>
<svg xmlns="http://www.w3.org/2000/svg" xmlns:xlink="http://www.w3.org/1999/xlink" width="200px" height="200px" viewBox="0 0 200 200" version="1.1">
<g id="surface1">
<path style=" stroke:none;fill-rule:nonzero;fill:rgb(19.215687%,47.058824%,77.64706%);fill-opacity:1;" d="M 19.53125 0 L 180.46875 0 C 191.253906 0 200 8.746094 200 19.53125 L 200 180.46875 C 200 191.253906 191.253906 200 180.46875 200 L 19.53125 200 C 8.746094 200 0 191.253906 0 180.46875 L 0 19.53125 C 0 8.746094 8.746094 0 19.53125 0 Z M 19.53125 0 "/>
<path style=" stroke:none;fill-rule:nonzero;fill:rgb(19.215687%,47.058824%,77.64706%);fill-opacity:1;" d="M 19.53125 0 L 180.46875 0 C 191.253906 0 200 8.746094 200 19.53125 L 200 180.46875 C 200 191.253906 191.253906 200 180.46875 200 L 19.53125 200 C 8.746094 200 0 191.253906 0 180.46875 L 0 19.53125 C 0 8.746094 8.746094 0 19.53125 0 Z M 19.53125 0 "/>
<path style=" stroke:none;fill-rule:evenodd;fill:rgb(100%,100%,100%);fill-opacity:1;" d="M 123.804688 159.148438 L 123.804688 178.703125 C 126.984375 180.335938 130.742188 181.558594 135.082031 182.371094 C 141.59375 183.59375 144 183.59375 148.808594 183.59375 C 153.496094 183.59375 157.949219 183.144531 162.164062 182.25 C 166.382812 181.351562 170.082031 179.875 173.261719 177.820312 C 176.441406 175.761719 178.957031 173.074219 180.8125 169.753906 C 183.59375 164.773438 183.59375 162.328125 183.59375 157.4375 C 183.59375 153.894531 183.0625 150.789062 182.003906 148.121094 C 180.414062 144.117188 179.417969 143.078125 177.417969 141 C 175.421875 138.921875 173.027344 137.058594 170.234375 135.410156 C 166.046875 132.933594 164.296875 132.199219 160.789062 130.734375 C 158.222656 129.675781 155.921875 128.644531 153.882812 127.648438 C 151.84375 126.648438 150.113281 125.632812 148.6875 124.59375 C 147.257812 123.554688 146.160156 122.453125 145.382812 121.292969 C 144.609375 120.132812 144.222656 118.816406 144.222656 117.351562 C 144.222656 116.007812 144.570312 114.796875 145.261719 113.714844 C 146.300781 112.097656 146.933594 111.710938 148.195312 110.933594 C 149.460938 110.160156 151.007812 109.558594 152.84375 109.132812 C 154.675781 108.703125 156.714844 108.492188 158.957031 108.492188 C 160.585938 108.492188 162.308594 108.613281 164.121094 108.855469 C 165.9375 109.101562 167.757812 109.480469 169.59375 109.988281 C 171.421875 110.496094 173.210938 111.136719 174.941406 111.914062 C 176.675781 112.6875 178.273438 113.582031 179.742188 114.601562 L 179.742188 96.328125 C 176.765625 95.1875 173.515625 94.34375 169.992188 93.792969 C 164.703125 92.96875 162.421875 92.96875 157.855469 92.96875 C 153.210938 92.96875 148.808594 93.46875 144.652344 94.464844 C 138.414062 95.964844 136.835938 97.023438 133.675781 99.140625 C 130.519531 101.257812 128.023438 103.957031 126.1875 107.238281 C 124.355469 110.515625 123.4375 114.4375 123.4375 119 C 123.4375 124.828125 125.117188 129.796875 128.480469 133.914062 C 131.84375 138.027344 136.949219 141.511719 143.796875 144.363281 C 146.484375 145.460938 148.992188 146.542969 151.316406 147.601562 C 154.800781 149.1875 155.644531 149.761719 157.335938 150.898438 C 159.027344 152.039062 160.363281 153.285156 161.339844 154.628906 C 162.320312 155.972656 162.808594 157.5 162.808594 159.210938 C 162.808594 160.472656 162.503906 161.644531 161.890625 162.726562 C 160.972656 164.34375 160.351562 164.742188 159.109375 165.535156 C 157.867188 166.332031 156.316406 166.953125 154.464844 167.398438 C 152.609375 167.847656 150.4375 168.070312 147.953125 168.070312 C 143.714844 168.070312 139.515625 167.328125 135.359375 165.839844 C 131.203125 164.355469 127.351562 162.125 123.804688 159.148438 M 90.929688 110.96875 L 116.015625 110.96875 L 116.015625 94.921875 L 46.09375 94.921875 L 46.09375 110.96875 L 71.058594 110.96875 L 71.058594 182.421875 L 90.929688 182.421875 Z M 90.929688 110.96875 "/>
</g>
</svg>
